<svg width="100" height="100" viewBox="0 0 100 100" fill="none" xmlns="http://www.w3.org/2000/svg">
<path d="M10.5 77V51.5L41 49L47.5 36H49.5V78L82 72.5L81.5 51H88.5V76.5L47.5 85L10.5 77Z" fill="#6E63F2"/>
<path d="M48.5 17.5L37 42.5L0 46L10 23.5L48.5 16L88.5 23L99 46L62 43.5L49.5 17.5H48.5Z" fill="#6E63F2"/>
<path d="M14.7216 53.4511L16.4037 53.4305L17.916 58.4937L17.992 58.495L20.0331 53.3857L21.7157 53.3649L21.3836 61.0852L20.049 61.0443L20.2509 56.0572L20.1971 56.057L18.3138 60.9544L17.4066 60.927L15.9439 56.0275L15.8902 56.0274L15.6716 60.9115L14.3415 60.8715L14.7216 53.4511Z" fill="white"/>
<path d="M23.6411 61.1548L22.1649 61.1092L24.7183 53.3276L26.4771 53.3056L28.4445 61.3045L26.9641 61.2581L25.5424 55.1199L25.4918 55.12L23.6411 61.1548ZM23.6518 58.0811L27.1322 58.13L27.0911 59.4445L23.6054 59.3705L23.6518 58.0811Z" fill="white"/>
<path d="M33.3862 55.8815C33.3468 55.6856 33.2889 55.5127 33.2126 55.3626C33.1364 55.21 33.0417 55.0817 32.9285 54.9777C32.8175 54.8711 32.689 54.7901 32.543 54.7346C32.3991 54.6792 32.2386 54.652 32.0615 54.6528C31.7304 54.6545 31.4362 54.7594 31.1788 54.9671C30.9233 55.1743 30.7196 55.4747 30.5678 55.8683C30.4162 56.2587 30.3319 56.7359 30.3151 57.3005C30.299 57.865 30.3546 58.3462 30.482 58.7444C30.6098 59.1433 30.7977 59.45 31.0457 59.6647C31.2939 59.8773 31.5905 59.9879 31.9353 59.9962C32.2481 60.0038 32.5168 59.9408 32.7411 59.807C32.9675 59.6703 33.1419 59.4745 33.2643 59.2196C33.3888 58.9644 33.4548 58.6609 33.4624 58.3093L33.7417 58.366L32.0597 58.3403L32.0926 57.0378L34.8169 57.0601L34.7957 58.1063C34.7817 58.8361 34.6487 59.4607 34.3964 59.9789C34.144 60.4931 33.802 60.8849 33.3703 61.1543C32.9386 61.4198 32.4474 61.5432 31.8971 61.5254C31.283 61.5055 30.7473 61.3201 30.2904 60.9705C29.8342 60.6199 29.4843 60.1332 29.241 59.5102C29.0011 58.8864 28.8941 58.1511 28.9202 57.3029C28.9412 56.651 29.0366 56.07 29.2061 55.5592C29.3781 55.045 29.6085 54.6083 29.8972 54.249C30.1857 53.8887 30.5163 53.6125 30.8888 53.4208C31.2611 53.2284 31.6604 53.129 32.087 53.1234C32.4527 53.1186 32.7911 53.1822 33.1024 53.3147C33.414 53.445 33.6884 53.6325 33.9259 53.8774C34.1658 54.1229 34.3595 54.4166 34.5072 54.7584C34.6552 55.098 34.7469 55.4733 34.782 55.8841L33.3862 55.8815Z" fill="white"/>
<path d="M37.2973 53.1691L37.1667 61.5822L35.7779 61.5375L35.9316 53.1865L37.2973 53.1691Z" fill="white"/>
<path d="M44.122 56.1372L42.7286 56.1326C42.704 55.8928 42.6529 55.6799 42.5752 55.4938C42.4977 55.3051 42.3979 55.1448 42.2759 55.0128C42.154 54.881 42.0129 54.7803 41.8528 54.7108C41.6948 54.6413 41.5229 54.6071 41.3371 54.608C41.0014 54.6096 40.7079 54.7212 40.4566 54.9424C40.205 55.1602 40.0082 55.4774 39.8662 55.894C39.7241 56.3073 39.6498 56.8091 39.6436 57.4001C39.6374 58.0076 39.7016 58.5192 39.8363 58.9352C39.9734 59.3519 40.1671 59.6689 40.4175 59.8861C40.6681 60.104 40.9592 60.2172 41.2907 60.2255C41.4767 60.2301 41.6491 60.2022 41.8076 60.1415C41.9683 60.0809 42.1109 59.9901 42.2354 59.8693C42.3599 59.7455 42.463 59.5943 42.5448 59.4157C42.6287 59.237 42.687 59.0323 42.7198 58.8017L44.122 58.8346C44.0856 59.2345 43.9947 59.6188 43.8491 59.9873C43.7054 60.3525 43.5112 60.6774 43.2665 60.9621C43.0237 61.2433 42.7336 61.463 42.3963 61.6214C42.0611 61.7765 41.6821 61.8467 41.2595 61.8327C40.672 61.8131 40.148 61.6232 39.688 61.2641C39.2309 60.9068 38.8722 60.4005 38.6121 59.7451C38.3551 59.0916 38.2327 58.3058 38.2447 57.3861C38.2574 56.4636 38.4019 55.6789 38.6775 55.0306C38.9525 54.3805 39.3197 53.8826 39.7789 53.5372C40.2375 53.1873 40.7503 53.0079 41.318 53.0003C41.6922 52.9952 42.0387 53.0608 42.3577 53.1973C42.679 53.3343 42.9636 53.5371 43.2114 53.8059C43.4596 54.0726 43.6617 54.4013 43.8176 54.7918C43.976 55.1829 44.0775 55.6315 44.122 56.1372Z" fill="white"/>
<path d="M17.7134 68.5948C17.6897 68.2948 17.5824 68.0555 17.3912 67.8772C17.2002 67.6993 16.9399 67.5993 16.6102 67.577C16.3863 67.5619 16.197 67.5858 16.0423 67.6486C15.8877 67.7088 15.7688 67.7994 15.6857 67.9205C15.6048 68.0415 15.564 68.1824 15.5632 68.3431C15.5585 68.4767 15.5823 68.5954 15.6347 68.6991C15.6893 68.8031 15.764 68.8953 15.8587 68.9756C15.9535 69.0535 16.0631 69.1242 16.1875 69.1875C16.3119 69.2484 16.4448 69.3027 16.5861 69.3504L17.1685 69.5578C17.4514 69.6539 17.7111 69.7731 17.9477 69.9154C18.1843 70.058 18.3893 70.2269 18.5628 70.4219C18.7363 70.6173 18.8709 70.8421 18.9667 71.096C19.0648 71.3504 19.1157 71.6368 19.1195 71.9551C19.1206 72.4221 19.0227 72.8175 18.8257 73.1406C18.6314 73.4607 18.3483 73.6955 17.9761 73.8452C17.6065 73.9918 17.1592 74.0375 16.6339 73.9828C16.1131 73.9287 15.6581 73.789 15.2687 73.5643C14.8816 73.3406 14.5768 73.0377 14.3548 72.6557C14.1352 72.2723 14.0168 71.8136 14 71.2789L15.3208 71.397C15.3379 71.649 15.4021 71.8639 15.5133 72.0421C15.6267 72.2182 15.7764 72.3578 15.9625 72.4609C16.1506 72.5619 16.3625 72.6238 16.5981 72.6465C16.8296 72.6688 17.0301 72.6488 17.1997 72.5866C17.3716 72.5244 17.5042 72.4275 17.5977 72.296C17.6913 72.1644 17.7374 72.0073 17.736 71.8248C17.7348 71.6546 17.6906 71.5077 17.6035 71.3841C17.5184 71.2609 17.3935 71.1515 17.2285 71.0559C17.0658 70.9607 16.8662 70.8698 16.6297 70.7833L15.9239 70.5179C15.3778 70.3186 14.9463 70.0436 14.6295 69.6931C14.3132 69.3437 14.1561 68.8953 14.1591 68.3471C14.1587 67.8976 14.2653 67.5121 14.4786 67.19C14.6946 66.8673 14.9896 66.6227 15.3632 66.4563C15.7372 66.2891 16.1609 66.2194 16.6343 66.2478C17.1163 66.2768 17.5359 66.3982 17.893 66.6124C18.2525 66.8276 18.5309 67.1139 18.7284 67.4714C18.9263 67.8297 19.0268 68.2365 19.0302 68.6912L17.7134 68.5948Z" fill="white"/>
<path d="M19.8031 67.8799L19.8182 66.5448L25.1796 66.8754L25.164 68.2506L23.1622 68.1115L23.1617 74.5564L21.8025 74.4139L21.7981 68.0172L19.8031 67.8799Z" fill="white"/>
<path d="M27.4507 67.0169L27.4234 75.0059L26.0405 74.8595L26.0651 66.9305L27.4507 67.0169Z" fill="white"/>
<path d="M34.3797 70.3582L32.9673 70.2468C32.9428 70.0171 32.8914 69.8108 32.8131 69.6281C32.7348 69.4428 32.6339 69.2828 32.5103 69.148C32.3867 69.0134 32.2437 68.907 32.0811 68.8286C31.9208 68.7505 31.7462 68.7049 31.5575 68.6915C31.2167 68.6674 30.919 68.7511 30.6644 68.9421C30.41 69.13 30.2118 69.4165 30.0699 69.8017C29.9283 70.1837 29.8562 70.6551 29.8538 71.2164C29.8519 71.7934 29.9204 72.2846 30.059 72.6903C30.2001 73.0967 30.397 73.4127 30.6498 73.6383C30.9027 73.8644 31.1953 73.9941 31.5275 74.0271C31.7141 74.0456 31.8867 74.0322 32.0455 73.9866C32.2064 73.9411 32.3491 73.8657 32.4736 73.7604C32.5982 73.6522 32.7013 73.5164 32.7831 73.3529C32.867 73.1895 32.9253 72.9994 32.9579 72.7827L34.3706 72.9214C34.3334 73.2985 34.2415 73.6568 34.095 73.9958C33.9508 74.3318 33.7563 74.6258 33.5115 74.8777C33.269 75.1264 32.9795 75.3132 32.6428 75.438C32.3085 75.5599 31.9302 75.598 31.508 75.5525C30.9212 75.4894 30.3963 75.2692 29.9331 74.8931C29.4724 74.5189 29.1078 74.0104 28.8397 73.3677C28.5745 72.7271 28.4427 71.9707 28.4451 71.0973C28.4491 70.2213 28.5884 69.4863 28.8626 68.8909C29.1375 68.2937 29.508 67.8483 29.9735 67.5549C30.4394 67.2573 30.9615 67.126 31.5399 67.1622C31.9214 67.186 32.2744 67.2749 32.5991 67.4292C32.926 67.584 33.2151 67.7986 33.4662 68.0731C33.7175 68.3456 33.9213 68.6734 34.0777 69.0564C34.2365 69.4403 34.3371 69.8743 34.3797 70.3582Z" fill="white"/>
<path d="M35.3728 75.8561L35.4011 67.519L36.7988 67.6084L36.7792 71.3114L36.8666 71.3187L39.2694 67.7671L40.9509 67.8757L38.4733 71.5111L40.9663 76.4633L39.2823 76.2797L37.4653 72.6162L36.7735 73.6203L36.7729 76.0074L35.3728 75.8561Z" fill="white"/>
</svg>
